<?xml version="1.0" encoding="UTF-8" standalone="no"?>
<svg
   xmlns:dc="http://purl.org/dc/elements/1.1/"
   xmlns:cc="http://creativecommons.org/ns#"
   xmlns:rdf="http://www.w3.org/1999/02/22-rdf-syntax-ns#"
   xmlns:svg="http://www.w3.org/2000/svg"
   xmlns="http://www.w3.org/2000/svg"
   xmlns:sodipodi="http://sodipodi.sourceforge.net/DTD/sodipodi-0.dtd"
   xmlns:inkscape="http://www.inkscape.org/namespaces/inkscape"
   id="Layer_1"
   version="1.1"
   viewBox="0 0 47.900002 47.900002"
   xml:space="preserve"
   sodipodi:docname="iconfinder_lock_1814107.svg"
   width="47.900002"
   height="47.900002"
   inkscape:version="0.92.4 (unknown)"><metadata
     id="metadata170"><rdf:RDF><cc:Work
         rdf:about=""><dc:format>image/svg+xml</dc:format><dc:type
           rdf:resource="http://purl.org/dc/dcmitype/StillImage" /><dc:title></dc:title></cc:Work></rdf:RDF></metadata><defs
     id="defs168" /><sodipodi:namedview
     pagecolor="#ffffff"
     bordercolor="#666666"
     borderopacity="1"
     objecttolerance="10"
     gridtolerance="10"
     guidetolerance="10"
     inkscape:pageopacity="0"
     inkscape:pageshadow="2"
     inkscape:window-width="1366"
     inkscape:window-height="713"
     id="namedview166"
     showgrid="false"
     fit-margin-top="0"
     fit-margin-left="0"
     fit-margin-right="0"
     fit-margin-bottom="0"
     inkscape:zoom="3.6875"
     inkscape:cx="17.6"
     inkscape:cy="23.9"
     inkscape:window-x="0"
     inkscape:window-y="28"
     inkscape:window-maximized="1"
     inkscape:current-layer="Layer_1" /><style
     type="text/css"
     id="style156">
	.st0{fill:#134563;}
</style><g
     id="g163"
     transform="translate(-8.4,-8.000003)"
     style="fill:#ffffff"><g
       id="Icon-Lock"
       transform="translate(284,430)"
       style="fill:#ffffff"><path
         class="st0"
         d="m -237.7,-401.3 h -3 v -6.4 c 0,-6.2 -5.1,-11.3 -11.3,-11.3 -6.2,0 -11.3,5.1 -11.3,11.3 v 6.4 h -3 v -6.4 c 0,-7.9 6.4,-14.3 14.3,-14.3 7.9,0 14.3,6.4 14.3,14.3 v 6.4"
         id="Fill-66"
         inkscape:connector-curvature="0"
         style="fill:#ffffff" /><path
         class="st0"
         d="m -239.2,-374.1 h -25.6 c -2.6,0 -4.8,-2.2 -4.8,-4.8 v -19.2 c 0,-2.6 2.2,-4.8 4.8,-4.8 h 25.6 c 2.6,0 4.8,2.2 4.8,4.8 v 19.2 c 0,2.7 -2.2,4.8 -4.8,4.8 z m -25.6,-25.6 c -0.9,0 -1.6,0.7 -1.6,1.6 v 19.2 c 0,0.9 0.7,1.6 1.6,1.6 h 25.6 c 0.9,0 1.6,-0.7 1.6,-1.6 v -19.2 c 0,-0.9 -0.7,-1.6 -1.6,-1.6 z"
         id="Fill-67"
         inkscape:connector-curvature="0"
         style="fill:#ffffff" /><path
         class="st0"
         d="m -248.8,-393.3 c 0,1.8 -1.4,3.2 -3.2,3.2 -1.8,0 -3.2,-1.4 -3.2,-3.2 0,-1.8 1.4,-3.2 3.2,-3.2 1.8,0 3.2,1.5 3.2,3.2"
         id="Fill-68"
         inkscape:connector-curvature="0"
         style="fill:#ffffff" /><polyline
         class="st0"
         id="Fill-69"
         points="-251.2,-393.3 -252.8,-393.3 -254.4,-383.7 -249.6,-383.7 -251.2,-393.3    "
         style="fill:#ffffff" /></g></g></svg>