<?xml version="1.0" encoding="UTF-8" standalone="no"?>
<svg
   xmlns:dc="http://purl.org/dc/elements/1.1/"
   xmlns:cc="http://creativecommons.org/ns#"
   xmlns:rdf="http://www.w3.org/1999/02/22-rdf-syntax-ns#"
   xmlns:svg="http://www.w3.org/2000/svg"
   xmlns="http://www.w3.org/2000/svg"
   xmlns:sodipodi="http://sodipodi.sourceforge.net/DTD/sodipodi-0.dtd"
   xmlns:inkscape="http://www.inkscape.org/namespaces/inkscape"
   enable-background="new 0 0 24 24"
   height="24px"
   id="Layer_1"
   version="1.1"
   viewBox="0 0 24 24"
   width="24px"
   xml:space="preserve"
   sodipodi:docname="iconfinder__social_media_ten_2560079.svg"
   inkscape:version="0.92.4 (unknown)"><metadata
     id="metadata100"><rdf:RDF><cc:Work
         rdf:about=""><dc:format>image/svg+xml</dc:format><dc:type
           rdf:resource="http://purl.org/dc/dcmitype/StillImage" /></cc:Work></rdf:RDF></metadata><defs
     id="defs98" /><sodipodi:namedview
     pagecolor="#ffffff"
     bordercolor="#666666"
     borderopacity="1"
     objecttolerance="10"
     gridtolerance="10"
     guidetolerance="10"
     inkscape:pageopacity="0"
     inkscape:pageshadow="2"
     inkscape:window-width="1366"
     inkscape:window-height="713"
     id="namedview96"
     showgrid="false"
     inkscape:zoom="21.916667"
     inkscape:cx="12"
     inkscape:cy="12"
     inkscape:window-x="0"
     inkscape:window-y="28"
     inkscape:window-maximized="1"
     inkscape:current-layer="Layer_1" /><g
     id="g93"
     style="fill:#ffffff"><g
       id="g87"
       style="fill:#ffffff"><g
         id="g79"
         style="fill:#ffffff"><g
           id="g77"
           style="fill:#ffffff"><path
             d="M12,21.8"
             fill="none"
             stroke="#000000"
             stroke-linecap="round"
             stroke-linejoin="round"
             stroke-miterlimit="10"
             id="path75"
             style="fill:#ffffff" /></g></g><g
         id="g85"
         style="fill:#ffffff"><g
           id="g83"
           style="fill:#ffffff"><path
             d="M20.5,18.5c-0.9,0-1.6-0.7-1.6-1.6V8L12,4L5.1,8v8.9c0,0.9-0.7,1.6-1.6,1.6c-0.9,0-1.6-0.7-1.6-1.6V6.5      C1.9,6.3,2,6.1,2.2,6l9.6-5.5c0.2-0.1,0.3-0.1,0.5,0L21.8,6c0.2,0.1,0.2,0.3,0.2,0.4v10.4C22.1,17.8,21.3,18.5,20.5,18.5z M12,3      c0.1,0,0.2,0,0.2,0.1l7.4,4.3c0.2,0.1,0.3,0.3,0.3,0.4v9.2c0,0.3,0.3,0.6,0.6,0.6c0.3,0,0.6-0.3,0.6-0.6V6.8l-9-5.2L2.9,6.8      v10.1c0,0.3,0.3,0.6,0.6,0.6c0.3,0,0.6-0.3,0.6-0.6V7.7c0-0.2,0.1-0.3,0.3-0.4L11.8,3C11.8,3,11.9,3,12,3z"
             id="path81"
             style="fill:#ffffff" /></g></g></g><g
       id="g91"
       style="fill:#ffffff"><path
         d="M12,23.5c-0.1,0-0.2,0-0.2-0.1l-4.7-2.7c-0.2-0.1-0.2-0.3-0.2-0.4V9.7c0-0.2,0.1-0.3,0.2-0.4L9.2,8c0.2-0.1,0.3-0.1,0.5,0    C9.9,8.1,10,8.3,10,8.4v10.4l2,1.2l2-1.2V8.4c0-0.2,0.1-0.3,0.3-0.4c0.2-0.1,0.3-0.1,0.5,0l2.1,1.2c0.2,0.1,0.2,0.3,0.2,0.4v10.6    c0,0.2-0.1,0.3-0.2,0.4l-4.7,2.7C12.2,23.5,12.1,23.5,12,23.5z M7.8,20l4.2,2.4l4.2-2.4V10L15,9.3v9.8c0,0.2-0.1,0.3-0.3,0.4    L12.3,21c-0.2,0.1-0.3,0.1-0.5,0l-2.5-1.5C9.1,19.4,9,19.3,9,19.1V9.3L7.8,10V20z"
         id="path89"
         style="fill:#ffffff" /></g></g></svg>